<svg id="レイヤー_1" data-name="レイヤー 1" xmlns="http://www.w3.org/2000/svg" viewBox="0 0 580.46 239.09"><title>Designthesolution logo</title><path d="M181.24,148.79a20.54,20.54,0,0,0,2.28,6.49,19.77,19.77,0,0,0,4.42,5.52,22,22,0,0,0,6.28,3.8,20.48,20.48,0,0,0,7.73,1.45,22,22,0,0,0,8.7-1.59,24.87,24.87,0,0,0,6.21-3.66,22.4,22.4,0,0,0,5.11-5.11l9,9a38.22,38.22,0,0,1-7.45,6.9,45.9,45.9,0,0,1-9.25,4.83,33.35,33.35,0,0,1-12.29,2.07,32.28,32.28,0,0,1-13.25-2.76,35.5,35.5,0,0,1-11-7.59,36.3,36.3,0,0,1-7.52-11.25,34,34,0,0,1-2.76-13.6,32.48,32.48,0,0,1,2.69-13.18,34.23,34.23,0,0,1,17.95-17.95,32.47,32.47,0,0,1,13.18-2.69,34.12,34.12,0,0,1,13,2.42,30.44,30.44,0,0,1,17,17,34.14,34.14,0,0,1,2.42,13,27.52,27.52,0,0,1-.14,2.83,21.17,21.17,0,0,0-.14,2.14q-.28,1.11-.41,1.93Zm20-27.61q-7.87,0-12.84,4.56a22.15,22.15,0,0,0-6.63,11.32h38.38A20,20,0,0,0,214,125.74Q209.13,121.18,201.26,121.18Z" transform="translate(-56.33 -80.46)"/><path d="M282,127.39a24.23,24.23,0,0,0-3.31-2.76,23.25,23.25,0,0,0-4-1.93,14.5,14.5,0,0,0-5.11-.83q-4.69,0-7.18,2.14a6.23,6.23,0,0,0-2.49,4.76,5.49,5.49,0,0,0,2.49,4.76,25.7,25.7,0,0,0,6.28,3q3.79,1.31,8.14,2.55a35.62,35.62,0,0,1,8.14,3.45,19.75,19.75,0,0,1,6.28,5.73q2.48,3.52,2.48,9.46a18.51,18.51,0,0,1-1.73,7.87,20.28,20.28,0,0,1-5,6.63,23.6,23.6,0,0,1-7.87,4.55,30.31,30.31,0,0,1-10.28,1.66,31.93,31.93,0,0,1-11.25-1.79,32.67,32.67,0,0,1-7.94-4.14,27.36,27.36,0,0,1-6.35-5.8l9-9a24.33,24.33,0,0,0,9.66,7,18.09,18.09,0,0,0,6.9,1.24q5.8,0,8.42-2.35a7.62,7.62,0,0,0,2.62-5.94,5.62,5.62,0,0,0-2.48-4.9,24.22,24.22,0,0,0-6.28-3q-3.8-1.24-8.14-2.48a35.55,35.55,0,0,1-8.14-3.45,19.39,19.39,0,0,1-6.28-5.8,17.32,17.32,0,0,1-.76-16.5,19.55,19.55,0,0,1,4.83-6.21,24.64,24.64,0,0,1,7.45-4.35,26.32,26.32,0,0,1,9.46-1.66,29.36,29.36,0,0,1,9.53,1.38,32.27,32.27,0,0,1,6.63,3,28.39,28.39,0,0,1,5.25,4.56Z" transform="translate(-56.33 -80.46)"/><path d="M322.46,174.74a8.68,8.68,0,1,1,2.35-5.94A8.05,8.05,0,0,1,322.46,174.74Zm1-26.64h-13.8V81.84h13.8Z" transform="translate(-56.33 -80.46)"/><path d="M390.38,167.43a27,27,0,0,1-5.38,4.14,34,34,0,0,1-6.35,2.9,25.3,25.3,0,0,1-8.28,1.24,28.51,28.51,0,0,1-11.87-2.55,30.69,30.69,0,0,1-9.87-7,35.39,35.39,0,0,1-6.76-10.49,34.6,34.6,0,0,1,0-26.09A35.42,35.42,0,0,1,348.62,119a30.75,30.75,0,0,1,9.87-7,28.54,28.54,0,0,1,11.87-2.55,24.67,24.67,0,0,1,8.35,1.31,38.79,38.79,0,0,1,6.28,2.83,27.13,27.13,0,0,1,5.38,4.14v-6.9h13.8v62.12a32.78,32.78,0,0,1-33.13,33.13,36.29,36.29,0,0,1-13.11-2.14,43.43,43.43,0,0,1-9.25-4.76,35,35,0,0,1-7.32-6.9l9-9a27.36,27.36,0,0,0,12,8.84,23,23,0,0,0,8.7,1.52,19,19,0,0,0,13.8-5.73,18.79,18.79,0,0,0,4.07-6.49,23.26,23.26,0,0,0,1.45-8.35Zm-37.27-24.85a21.05,21.05,0,0,0,1.59,8.21,22,22,0,0,0,4.14,6.56,18.93,18.93,0,0,0,5.94,4.35,16.09,16.09,0,0,0,13.94,0,19.82,19.82,0,0,0,6-4.35,20.46,20.46,0,0,0,4.14-6.56,23,23,0,0,0,0-16.43,20.48,20.48,0,0,0-4.14-6.56,19.92,19.92,0,0,0-6-4.35,16.11,16.11,0,0,0-13.94,0,19,19,0,0,0-5.94,4.35,22.07,22.07,0,0,0-4.14,6.56A21.07,21.07,0,0,0,353.11,142.58Z" transform="translate(-56.33 -80.46)"/><path d="M437.32,117.73a27,27,0,0,1,5.38-4.14,33.84,33.84,0,0,1,6.35-2.9,25.29,25.29,0,0,1,8.28-1.24,29,29,0,0,1,10.91,2,23.66,23.66,0,0,1,8.49,5.73,26.55,26.55,0,0,1,5.52,9.11,34.71,34.71,0,0,1,2,12.15v38.65h-13.8V138.44a16.3,16.3,0,0,0-4.56-11.94,15.26,15.26,0,0,0-11.32-4.62q-7.87,0-12.56,5t-4.69,14.36v35.89h-13.8V110.83h13.8Z" transform="translate(-56.33 -80.46)"/><path d="M117.05,290.55q0-5.52-3.8-8.42a33.2,33.2,0,0,0-9.46-4.83q-5.66-1.93-12.29-3.66a55.31,55.31,0,0,1-12.29-4.76,27.66,27.66,0,0,1-9.46-8.28Q66,255.35,66,246.38a24.92,24.92,0,0,1,2.14-10.21,23.5,23.5,0,0,1,6.21-8.35,30.45,30.45,0,0,1,10-5.59,40.49,40.49,0,0,1,13.39-2.07,37.67,37.67,0,0,1,12.7,1.93,47,47,0,0,1,9.11,4.28,36.42,36.42,0,0,1,7.18,6.21l-9.66,9.66a20.6,20.6,0,0,0-4.69-4.14,30.56,30.56,0,0,0-6.14-2.9A25.63,25.63,0,0,0,97.72,234a21.93,21.93,0,0,0-7,1,15.9,15.9,0,0,0-5.25,2.83,12.59,12.59,0,0,0-3.24,4,10.06,10.06,0,0,0-1.1,4.55q0,5.52,3.8,8.42a33,33,0,0,0,9.46,4.83q5.66,1.94,12.29,3.66A55.54,55.54,0,0,1,119,268.05a27.74,27.74,0,0,1,9.46,8.28q3.8,5.25,3.8,14.22A29,29,0,0,1,130,302.08a25.32,25.32,0,0,1-6.7,9.18,32.1,32.1,0,0,1-10.84,6.07,45.12,45.12,0,0,1-14.7,2.21A45.09,45.09,0,0,1,82.4,317.2,48.82,48.82,0,0,1,71.63,312a37.22,37.22,0,0,1-8.42-7.59l9.66-9.66a26.33,26.33,0,0,0,5.94,5.52,36.8,36.8,0,0,0,7.87,3.87,32.42,32.42,0,0,0,11,1.66q9.39,0,14.36-4.49A13.94,13.94,0,0,0,117.05,290.55Z" transform="translate(-56.33 -80.46)"/><path d="M243.36,318.16h-13.8V221.53h13.8Z" transform="translate(-56.33 -80.46)"/><path d="M311,311.26a26.91,26.91,0,0,1-5.38,4.14,33.83,33.83,0,0,1-6.35,2.9,25.25,25.25,0,0,1-8.28,1.24,29,29,0,0,1-10.91-2,23.64,23.64,0,0,1-8.49-5.73,26.52,26.52,0,0,1-5.52-9.11,34.67,34.67,0,0,1-2-12.15V251.9h13.8v38.65a16.29,16.29,0,0,0,4.56,11.94,15.24,15.24,0,0,0,11.32,4.62q7.87,0,12.56-5T311,287.79V251.9h13.8v66.26H311Z" transform="translate(-56.33 -80.46)"/><path d="M353.11,229.81h12.42V251.9h13.8v12.43h-13.8V298.7a8.21,8.21,0,0,0,2.35,6.07,8,8,0,0,0,5.94,2.35,15,15,0,0,0,2.48-.21,20.13,20.13,0,0,0,2.21-.48,12.5,12.5,0,0,0,2.21-.69v12.42a20.41,20.41,0,0,1-2.76.69q-1.38.27-3.11.48a31.88,31.88,0,0,1-3.8.21q-9.39,0-14.36-5.18t-5-15.53V264.33H339.3V251.9h6.9a6.44,6.44,0,0,0,5-2.07q1.86-2.07,1.86-6.21Z" transform="translate(-56.33 -80.46)"/><path d="M413.16,231.19a8,8,0,1,1-2.35-5.94A8,8,0,0,1,413.16,231.19Zm-1.38,87H398V251.9h13.8Z" transform="translate(-56.33 -80.46)"/><path d="M525.66,258.8a27,27,0,0,1,5.38-4.14,33.8,33.8,0,0,1,6.35-2.9,25.29,25.29,0,0,1,8.28-1.24,29,29,0,0,1,10.91,2,23.67,23.67,0,0,1,8.49,5.73,26.56,26.56,0,0,1,5.52,9.11,34.71,34.71,0,0,1,2,12.15v38.65h-13.8V279.51a16.3,16.3,0,0,0-4.55-11.94,15.26,15.26,0,0,0-11.32-4.62q-7.87,0-12.56,5t-4.69,14.36v35.89h-13.8V251.9h13.8Z" transform="translate(-56.33 -80.46)"/><path d="M625.05,268.47a24.11,24.11,0,0,0-3.31-2.76,23.26,23.26,0,0,0-4-1.93,14.49,14.49,0,0,0-5.11-.83q-4.69,0-7.18,2.14a6.23,6.23,0,0,0-2.48,4.76,5.49,5.49,0,0,0,2.48,4.76,25.69,25.69,0,0,0,6.28,3q3.8,1.31,8.14,2.55a35.6,35.6,0,0,1,8.15,3.45,19.77,19.77,0,0,1,6.28,5.73q2.48,3.52,2.48,9.46a18.51,18.51,0,0,1-1.73,7.87,20.29,20.29,0,0,1-5,6.63,23.63,23.63,0,0,1-7.87,4.55,30.31,30.31,0,0,1-10.28,1.66,31.93,31.93,0,0,1-11.25-1.79,32.7,32.7,0,0,1-7.94-4.14,27.38,27.38,0,0,1-6.35-5.8l9-9a24.33,24.33,0,0,0,9.66,7,18.08,18.08,0,0,0,6.9,1.24q5.8,0,8.42-2.35a7.62,7.62,0,0,0,2.62-5.94,5.62,5.62,0,0,0-2.48-4.9,24.24,24.24,0,0,0-6.28-3q-3.8-1.24-8.15-2.48a35.58,35.58,0,0,1-8.14-3.45,19.38,19.38,0,0,1-6.28-5.8,16.17,16.17,0,0,1-2.48-9.39,16,16,0,0,1,1.73-7.11,19.55,19.55,0,0,1,4.83-6.21,24.66,24.66,0,0,1,7.46-4.35,26.32,26.32,0,0,1,9.46-1.66,29.36,29.36,0,0,1,9.53,1.38,32.27,32.27,0,0,1,6.63,3,28.43,28.43,0,0,1,5.25,4.56Z" transform="translate(-56.33 -80.46)"/><path d="M524.12,123.21h7.1v12.62h7.89v7.1h-7.89v19.64a4.69,4.69,0,0,0,1.34,3.47,4.6,4.6,0,0,0,3.39,1.34,8.84,8.84,0,0,0,1.42-.12,11.4,11.4,0,0,0,1.26-.28,7,7,0,0,0,1.26-.39v7.1a11.64,11.64,0,0,1-1.58.39q-.79.16-1.78.28a18.25,18.25,0,0,1-2.17.12q-5.36,0-8.2-3t-2.84-8.87V142.93h-7.1v-7.1h3.94a3.68,3.68,0,0,0,2.88-1.18,5.16,5.16,0,0,0,1.07-3.55Z" transform="translate(-56.33 -80.46)"/><path d="M558,139.78a15.4,15.4,0,0,1,3.08-2.37,19.31,19.31,0,0,1,3.63-1.66,14.44,14.44,0,0,1,4.73-.71,16.57,16.57,0,0,1,6.23,1.14,13.54,13.54,0,0,1,4.85,3.27,15.19,15.19,0,0,1,3.15,5.21,19.82,19.82,0,0,1,1.14,6.94V173.7H577V151.61a9.31,9.31,0,0,0-2.6-6.82,8.71,8.71,0,0,0-6.47-2.64,9.41,9.41,0,0,0-7.18,2.84q-2.68,2.84-2.68,8.2V173.7h-7.89V118.48H558Z" transform="translate(-56.33 -80.46)"/><path d="M601.43,157.52a11.76,11.76,0,0,0,1.3,3.71,11.29,11.29,0,0,0,2.52,3.15,12.57,12.57,0,0,0,3.59,2.17,11.68,11.68,0,0,0,4.42.83,12.6,12.6,0,0,0,5-.91,14.19,14.19,0,0,0,3.55-2.09,12.83,12.83,0,0,0,2.92-2.92l5.13,5.13a21.75,21.75,0,0,1-4.26,3.94,26.26,26.26,0,0,1-5.29,2.76,19,19,0,0,1-7,1.18,18.43,18.43,0,0,1-7.57-1.58,20.27,20.27,0,0,1-6.27-4.34,20.71,20.71,0,0,1-4.3-6.43,19.42,19.42,0,0,1-1.58-7.77,18.54,18.54,0,0,1,1.54-7.53,19.54,19.54,0,0,1,10.25-10.26,18.58,18.58,0,0,1,7.53-1.54,19.51,19.51,0,0,1,7.41,1.38,17.39,17.39,0,0,1,9.74,9.74,19.51,19.51,0,0,1,1.38,7.41,15.67,15.67,0,0,1-.08,1.62,11.77,11.77,0,0,0-.08,1.22q-.16.63-.24,1.1Zm11.44-15.78a10.43,10.43,0,0,0-7.34,2.6,12.64,12.64,0,0,0-3.79,6.47h21.93a11.42,11.42,0,0,0-3.51-6.47A10.29,10.29,0,0,0,612.87,141.75Z" transform="translate(-56.33 -80.46)"/><path d="M150.46,110.21A49.66,49.66,0,0,0,139.9,94.81a50.62,50.62,0,0,0-15.6-10.49,47.17,47.17,0,0,0-19-3.87H71.5v40.26H86.68V94.26h18.64A32.48,32.48,0,0,1,118.5,97a34,34,0,0,1,10.7,7.32,35,35,0,0,1,7.25,10.9,35.52,35.52,0,0,1,0,27.13,34.81,34.81,0,0,1-7.25,11,34,34,0,0,1-10.7,7.32,32.48,32.48,0,0,1-13.18,2.69H86.68v-27.4H71.5v41.21h33.82a47.15,47.15,0,0,0,19-3.87,50.59,50.59,0,0,0,15.6-10.49,49.63,49.63,0,0,0,10.56-15.39,46.53,46.53,0,0,0,0-37.13Z" transform="translate(-56.33 -80.46)"/><rect y="40.26" width="15.17" height="15.17"/><rect x="30.36" y="40.26" width="15.17" height="15.17"/><path d="M202.71,260.81a36.17,36.17,0,0,0-11-7.52,33.2,33.2,0,0,0-26.5,0,36.17,36.17,0,0,0-11,7.52l9.18,9.18c.19-.21.36-.42.55-.62a22.31,22.31,0,0,1,6.63-4.69,18.8,18.8,0,0,1,15.74,0,22.3,22.3,0,0,1,6.63,4.69,21.8,21.8,0,0,1,4.56,7,23.65,23.65,0,0,1,0,17.39,21.85,21.85,0,0,1-4,6.35l9.18,9.18h0a36.14,36.14,0,0,0,7.52-11,33.18,33.18,0,0,0,0-26.51A36.14,36.14,0,0,0,202.71,260.81Z" transform="translate(-56.33 -80.46)"/><path d="M477.21,300.08c-.19.21-.36.42-.55.62a22.23,22.23,0,0,1-6.63,4.69,18.8,18.8,0,0,1-15.74,0,22.25,22.25,0,0,1-6.63-4.69,21.76,21.76,0,0,1-4.56-7,23.66,23.66,0,0,1,0-17.39,21.88,21.88,0,0,1,4-6.35l-9.18-9.18a36.13,36.13,0,0,0-7.52,11,33.19,33.19,0,0,0,0,26.51,36.28,36.28,0,0,0,18.5,18.5,33.18,33.18,0,0,0,26.5,0,36.1,36.1,0,0,0,11-7.52Z" transform="translate(-56.33 -80.46)"/><path d="M516.23,146.09" transform="translate(-56.33 -80.46)"/></svg>